<svg width="140" height="140" viewBox="0 0 140 140" fill="none" xmlns="http://www.w3.org/2000/svg">
<rect x="1" y="1" width="138" height="138" rx="10" fill="#173D31" stroke="white" stroke-width="2"/>
<g filter="url(#filter0_d_1_8)">
<path d="M26.3328 100L12.7328 44.16H19.8528L25.8528 71.04L30.4928 91.92H30.6528L35.8528 71.04L42.8928 44.16H50.5728L57.3728 71.04L62.5728 91.84H62.8128L67.6128 71.04L73.9328 44.16H80.8128L66.4928 100H59.0528L51.7728 72.16L46.6528 51.68H46.4928L41.2128 72.16L33.7728 100H26.3328ZM105.503 100.96C100.969 100.96 97.1028 100.107 93.9028 98.4C90.7028 96.64 87.9828 94.24 85.7428 91.2L90.7028 87.04C92.6761 89.6533 94.8628 91.6533 97.2628 93.04C99.6628 94.3733 102.489 95.04 105.743 95.04C109.743 95.04 112.783 94.08 114.863 92.16C116.996 90.24 118.063 87.68 118.063 84.48C118.063 81.8133 117.263 79.76 115.663 78.32C114.063 76.88 111.423 75.7333 107.743 74.88L103.183 73.84C98.0628 72.6667 94.1428 70.9067 91.4228 68.56C88.7561 66.16 87.4228 62.8 87.4228 58.48C87.4228 56.0267 87.8761 53.84 88.7828 51.92C89.6895 50 90.9428 48.4 92.5428 47.12C94.1961 45.84 96.1428 44.88 98.3828 44.24C100.676 43.5467 103.183 43.2 105.903 43.2C110.116 43.2 113.716 43.9733 116.703 45.52C119.743 47.0667 122.303 49.3333 124.383 52.32L119.343 56C117.796 53.8667 115.929 52.1867 113.743 50.96C111.556 49.7333 108.836 49.12 105.583 49.12C102.009 49.12 99.1828 49.8933 97.1028 51.44C95.0761 52.9333 94.0628 55.2 94.0628 58.24C94.0628 60.9067 94.9161 62.9333 96.6228 64.32C98.3828 65.6533 101.023 66.72 104.543 67.52L109.103 68.56C114.596 69.7867 118.569 71.6533 121.023 74.16C123.476 76.6667 124.703 80 124.703 84.16C124.703 86.72 124.249 89.04 123.343 91.12C122.489 93.2 121.236 94.96 119.583 96.4C117.929 97.84 115.903 98.96 113.503 99.76C111.156 100.56 108.489 100.96 105.503 100.96Z" fill="white"/>
</g>
<defs>
<filter id="filter0_d_1_8" x="8.73282" y="43.2" width="119.97" height="65.76" filterUnits="userSpaceOnUse" color-interpolation-filters="sRGB">
<feFlood flood-opacity="0" result="BackgroundImageFix"/>
<feColorMatrix in="SourceAlpha" type="matrix" values="0 0 0 0 0 0 0 0 0 0 0 0 0 0 0 0 0 0 127 0" result="hardAlpha"/>
<feOffset dy="4"/>
<feGaussianBlur stdDeviation="2"/>
<feComposite in2="hardAlpha" operator="out"/>
<feColorMatrix type="matrix" values="0 0 0 0 0 0 0 0 0 0 0 0 0 0 0 0 0 0 0.25 0"/>
<feBlend mode="normal" in2="BackgroundImageFix" result="effect1_dropShadow_1_8"/>
<feBlend mode="normal" in="SourceGraphic" in2="effect1_dropShadow_1_8" result="shape"/>
</filter>
</defs>
</svg>
